<svg id="svg" version="1.1" xmlns="http://www.w3.org/2000/svg" xmlns:xlink="http://www.w3.org/1999/xlink" width="400" height="400" viewBox="0, 0, 400,400"><g id="svgg"><path id="path0" d="M197.600 32.829 C 174.712 36.272,169.656 68.407,190.445 78.305 L 192.689 79.374 192.945 83.587 C 193.085 85.904,193.182 107.690,193.160 132.000 C 193.138 156.310,193.138 176.425,193.160 176.700 C 193.202 177.228,208.047 177.464,209.367 176.957 C 209.939 176.738,210.000 172.050,210.000 127.976 L 210.000 79.237 211.812 78.436 C 236.822 67.373,224.783 28.739,197.600 32.829 M204.617 49.952 C 212.028 53.319,209.396 64.380,201.179 64.398 C 199.587 64.401,196.293 62.551,195.319 61.107 C 191.123 54.882,197.810 46.860,204.617 49.952 M114.715 71.010 C 101.463 73.647,93.071 88.338,97.193 101.683 C 101.315 115.029,117.558 122.202,129.948 116.149 C 132.803 114.754,133.564 114.738,133.594 116.072 C 133.597 116.222,134.691 118.642,136.024 121.450 C 137.357 124.258,139.500 128.995,140.786 131.977 C 142.072 134.960,144.335 140.100,145.814 143.400 C 150.498 153.848,152.800 159.266,152.800 159.842 C 152.800 160.317,143.638 160.400,91.200 160.400 L 29.600 160.400 29.600 168.553 C 29.600 176.671,29.604 176.708,30.500 176.948 C 30.995 177.081,60.470 177.196,96.000 177.204 L 160.600 177.219 162.371 181.109 C 164.670 186.160,169.303 196.781,173.054 205.600 C 174.692 209.450,176.740 214.150,177.605 216.044 C 178.470 217.938,179.342 219.918,179.542 220.444 C 180.162 222.068,187.524 238.682,190.335 244.800 L 193.000 250.600 193.102 278.200 C 193.158 293.380,193.092 311.246,192.956 317.902 L 192.708 330.003 190.254 331.187 C 172.280 339.862,173.805 367.414,192.615 373.836 C 220.768 383.448,238.532 345.930,212.707 331.399 L 209.800 329.763 209.950 290.182 L 210.100 250.600 212.105 246.000 C 213.208 243.470,215.322 238.610,216.803 235.200 C 218.283 231.790,220.976 225.670,222.785 221.600 C 224.595 217.530,226.709 212.760,227.483 211.000 C 228.257 209.240,229.484 206.450,230.209 204.800 C 231.800 201.183,234.842 194.135,237.994 186.767 C 239.273 183.779,240.790 180.404,241.366 179.267 L 242.413 177.200 306.974 177.200 C 342.482 177.200,371.819 177.091,372.167 176.957 C 372.716 176.747,372.800 175.627,372.800 168.557 L 372.800 160.400 311.424 160.400 C 277.667 160.400,249.953 160.247,249.837 160.060 C 249.722 159.873,250.268 158.388,251.051 156.760 C 251.835 155.132,253.520 151.370,254.797 148.400 C 256.073 145.430,258.145 140.660,259.400 137.800 C 260.655 134.940,262.181 131.430,262.791 130.000 C 263.401 128.570,264.893 125.240,266.107 122.600 C 267.320 119.960,268.600 117.109,268.951 116.265 C 269.302 115.420,269.726 114.796,269.894 114.877 C 275.991 117.814,277.328 118.158,282.600 118.145 C 306.763 118.089,315.588 87.209,295.207 74.036 C 279.892 64.137,258.400 75.890,258.400 94.163 C 258.400 97.074,258.276 97.487,255.652 103.306 C 252.586 110.106,248.043 120.335,244.596 128.200 C 243.343 131.060,240.874 136.640,239.109 140.600 C 237.344 144.560,235.139 149.600,234.209 151.800 C 227.869 166.787,226.477 170.004,220.789 182.800 C 217.130 191.033,216.228 193.102,211.901 203.200 C 210.251 207.050,207.729 212.825,206.296 216.033 C 204.864 219.242,203.285 222.983,202.787 224.347 C 202.290 225.711,201.690 226.763,201.454 226.685 C 200.997 226.532,196.202 216.175,192.896 208.200 C 190.652 202.786,185.098 189.905,179.616 177.400 C 175.678 168.416,172.455 161.003,169.268 153.600 C 166.608 147.420,160.391 133.271,158.811 129.800 C 158.110 128.260,156.487 124.570,155.204 121.600 C 153.921 118.630,152.160 114.669,151.292 112.798 C 145.783 100.928,144.507 97.511,144.275 94.000 C 143.246 78.436,129.829 68.001,114.715 71.010 M286.665 88.236 C 291.254 90.874,291.360 97.400,286.866 100.574 C 280.746 104.898,272.618 98.848,275.573 92.168 C 277.743 87.263,282.215 85.677,286.665 88.236 M123.572 87.786 C 130.836 91.542,127.939 102.446,119.814 101.929 C 109.976 101.302,110.455 87.343,120.320 87.225 C 121.486 87.211,122.949 87.464,123.572 87.786 M169.896 103.367 C 167.171 104.348,165.999 106.007,166.001 108.880 C 166.006 113.513,171.224 116.031,175.100 113.272 C 180.293 109.574,175.897 101.207,169.896 103.367 M228.487 103.443 C 224.770 105.338,224.161 110.597,227.350 113.263 C 231.824 117.004,238.328 112.117,236.220 106.598 C 235.014 103.439,231.392 101.962,228.487 103.443 M117.743 131.182 C 113.054 132.300,110.401 137.521,112.346 141.803 C 115.923 149.678,127.600 147.579,127.600 139.061 C 127.600 133.585,123.019 129.923,117.743 131.182 M280.200 131.280 C 277.045 132.376,274.343 136.978,275.018 140.107 C 276.743 148.096,287.082 149.324,290.181 141.907 C 292.814 135.607,286.647 129.040,280.200 131.280 M29.692 203.100 L 29.800 211.400 84.379 211.501 C 114.397 211.557,139.084 211.467,139.240 211.301 C 139.395 211.136,137.879 207.355,135.870 202.900 L 132.217 194.800 80.900 194.800 L 29.584 194.800 29.692 203.100 M268.092 200.100 C 264.949 206.957,263.600 210.227,263.600 210.989 C 263.600 211.538,269.346 211.592,318.100 211.501 L 372.600 211.400 372.708 203.100 L 372.816 194.800 321.669 194.800 L 270.521 194.800 268.092 200.100 M29.779 229.711 C 29.671 229.993,29.631 233.728,29.691 238.012 L 29.800 245.800 84.867 246.000 C 115.153 246.110,140.028 246.294,140.143 246.410 C 140.633 246.900,152.000 272.044,152.000 272.637 C 152.000 272.812,150.242 274.765,148.093 276.977 C 145.944 279.190,141.631 283.658,138.509 286.906 L 132.833 292.811 130.250 291.441 C 121.080 286.576,108.224 289.390,101.580 297.716 C 88.491 314.117,101.043 338.509,121.813 337.037 C 135.627 336.057,144.148 326.084,144.061 311.000 L 144.029 305.400 148.353 300.927 C 150.731 298.467,154.149 294.881,155.949 292.958 C 157.831 290.946,159.361 289.618,159.552 289.830 C 159.893 290.212,163.405 297.635,167.855 307.382 C 170.551 313.286,170.888 313.840,171.539 313.438 C 171.968 313.173,181.526 299.059,181.852 298.209 C 181.956 297.938,180.478 294.225,178.568 289.958 C 176.657 285.691,173.249 277.970,170.994 272.800 C 168.739 267.630,165.228 259.620,163.192 255.000 C 161.156 250.380,157.820 242.730,155.778 238.000 L 152.066 229.400 91.021 229.299 C 41.652 229.217,29.938 229.296,29.779 229.711 M250.932 229.699 C 250.758 229.974,250.056 231.460,249.373 233.000 C 248.689 234.540,245.930 240.750,243.241 246.800 C 240.553 252.850,236.725 261.490,234.733 266.000 C 232.742 270.510,229.988 276.720,228.613 279.800 C 222.952 292.487,220.800 297.452,220.809 297.816 C 220.827 298.661,231.061 313.600,231.621 313.600 C 232.186 313.600,242.800 291.167,242.800 289.973 C 242.800 288.946,244.198 290.146,250.171 296.300 C 259.814 306.236,259.202 305.397,258.720 308.009 C 255.330 326.383,272.770 341.687,290.367 335.780 C 310.216 329.117,312.023 300.354,293.155 291.412 C 286.752 288.378,277.200 288.370,272.408 291.395 C 271.532 291.948,270.573 292.400,270.275 292.400 C 269.835 292.400,257.555 280.208,252.031 274.287 L 250.661 272.819 254.231 264.754 C 256.194 260.319,258.895 254.330,260.233 251.445 L 262.665 246.200 317.633 246.000 L 372.600 245.800 372.600 237.600 L 372.600 229.400 311.924 229.299 C 263.648 229.218,251.184 229.300,250.932 229.699 M116.953 260.813 C 113.566 261.852,110.982 267.020,111.986 270.747 C 113.825 277.578,123.635 278.604,126.850 272.302 C 130.084 265.963,123.830 258.702,116.953 260.813 M279.772 261.157 C 277.575 262.155,275.726 264.494,275.170 266.980 C 273.282 275.415,284.529 280.229,289.468 273.101 C 293.848 266.782,286.719 258.002,279.772 261.157 M124.177 306.965 C 128.724 309.630,128.771 315.731,124.272 319.355 C 122.061 321.136,118.459 321.155,115.972 319.400 C 107.984 313.762,115.734 302.018,124.177 306.965 M285.507 306.219 C 291.646 308.784,291.651 316.881,285.516 320.037 C 280.856 322.434,275.108 318.852,275.108 313.552 C 275.108 307.973,280.539 304.143,285.507 306.219 M204.617 345.152 C 207.612 346.512,209.545 349.955,208.986 352.934 C 207.212 362.392,193.028 360.496,194.105 350.945 C 194.665 345.976,199.981 343.046,204.617 345.152 " stroke="none" fill="#181818" fill-rule="evenodd"></path><path id="path1" d="M0.000 200.000 L 0.000 400.000 200.000 400.000 L 400.000 400.000 400.000 200.000 L 400.000 0.000 200.000 0.000 L 0.000 0.000 0.000 200.000 M205.736 33.000 C 228.525 36.974,232.826 69.141,211.812 78.436 L 210.000 79.237 210.000 127.976 C 210.000 172.050,209.939 176.738,209.367 176.957 C 208.047 177.464,193.202 177.228,193.160 176.700 C 193.138 176.425,193.138 156.310,193.160 132.000 C 193.182 107.690,193.085 85.904,192.945 83.587 L 192.689 79.374 190.445 78.305 C 165.615 66.483,178.519 28.254,205.736 33.000 M198.597 49.946 C 192.682 52.633,192.437 60.525,198.179 63.407 C 201.373 65.010,204.450 64.507,206.852 61.989 C 212.519 56.049,206.023 46.572,198.597 49.946 M125.000 71.000 C 135.750 73.249,143.515 82.515,144.275 94.000 C 144.507 97.511,145.783 100.928,151.292 112.798 C 152.160 114.669,153.921 118.630,155.204 121.600 C 156.487 124.570,158.110 128.260,158.811 129.800 C 160.391 133.271,166.608 147.420,169.268 153.600 C 172.455 161.003,175.678 168.416,179.616 177.400 C 185.098 189.905,190.652 202.786,192.896 208.200 C 196.202 216.175,200.997 226.532,201.454 226.685 C 201.690 226.763,202.290 225.711,202.787 224.347 C 203.285 222.983,204.864 219.242,206.296 216.033 C 207.729 212.825,210.251 207.050,211.901 203.200 C 216.228 193.102,217.130 191.033,220.789 182.800 C 226.477 170.004,227.869 166.787,234.209 151.800 C 235.139 149.600,237.344 144.560,239.109 140.600 C 240.874 136.640,243.343 131.060,244.596 128.200 C 248.043 120.335,252.586 110.106,255.652 103.306 C 258.276 97.487,258.400 97.074,258.400 94.163 C 258.400 75.890,279.892 64.137,295.207 74.036 C 315.588 87.209,306.763 118.089,282.600 118.145 C 277.328 118.158,275.991 117.814,269.894 114.877 C 269.726 114.796,269.302 115.420,268.951 116.265 C 268.600 117.109,267.320 119.960,266.107 122.600 C 264.893 125.240,263.401 128.570,262.791 130.000 C 262.181 131.430,260.655 134.940,259.400 137.800 C 258.145 140.660,256.073 145.430,254.797 148.400 C 253.520 151.370,251.835 155.132,251.051 156.760 C 250.268 158.388,249.722 159.873,249.837 160.060 C 249.953 160.247,277.667 160.400,311.424 160.400 L 372.800 160.400 372.800 168.557 C 372.800 175.627,372.716 176.747,372.167 176.957 C 371.819 177.091,342.482 177.200,306.974 177.200 L 242.413 177.200 241.366 179.267 C 240.790 180.404,239.273 183.779,237.994 186.767 C 234.842 194.135,231.800 201.183,230.209 204.800 C 229.484 206.450,228.257 209.240,227.483 211.000 C 226.709 212.760,224.595 217.530,222.785 221.600 C 220.976 225.670,218.283 231.790,216.803 235.200 C 215.322 238.610,213.208 243.470,212.105 246.000 L 210.100 250.600 209.950 290.182 L 209.800 329.763 212.707 331.399 C 234.949 343.914,225.735 376.180,200.225 375.109 C 175.925 374.089,168.562 341.656,190.254 331.187 L 192.708 330.003 192.956 317.902 C 193.092 311.246,193.158 293.380,193.102 278.200 L 193.000 250.600 190.335 244.800 C 187.524 238.682,180.162 222.068,179.542 220.444 C 179.342 219.918,178.470 217.938,177.605 216.044 C 176.740 214.150,174.692 209.450,173.054 205.600 C 169.303 196.781,164.670 186.160,162.371 181.109 L 160.600 177.219 96.000 177.204 C 60.470 177.196,30.995 177.081,30.500 176.948 C 29.604 176.708,29.600 176.671,29.600 168.553 L 29.600 160.400 91.200 160.400 C 143.638 160.400,152.800 160.317,152.800 159.842 C 152.800 159.266,150.498 153.848,145.814 143.400 C 144.335 140.100,142.072 134.960,140.786 131.977 C 139.500 128.995,137.357 124.258,136.024 121.450 C 134.691 118.642,133.597 116.222,133.594 116.072 C 133.564 114.738,132.803 114.754,129.948 116.149 C 117.558 122.202,101.315 115.029,97.193 101.683 C 91.757 84.085,107.024 67.239,125.000 71.000 M281.400 87.170 C 272.079 89.470,273.341 102.607,282.817 101.921 C 290.319 101.379,292.991 91.872,286.665 88.236 C 284.688 87.099,283.040 86.766,281.400 87.170 M117.200 87.648 C 113.404 89.157,111.468 94.811,113.567 98.254 C 117.518 104.733,127.615 102.348,127.656 94.926 C 127.687 89.300,122.364 85.595,117.200 87.648 M174.719 103.861 C 176.969 105.287,178.061 108.708,176.988 110.969 C 174.351 116.526,166.007 114.939,166.001 108.880 C 165.997 104.230,170.873 101.423,174.719 103.861 M234.332 103.952 C 238.070 106.613,237.098 112.503,232.640 114.206 C 227.575 116.140,223.107 109.824,226.334 105.293 C 228.138 102.759,231.796 102.146,234.332 103.952 M122.244 131.391 C 130.114 133.728,128.996 145.922,120.839 146.706 C 110.963 147.655,108.134 133.473,117.743 131.182 C 119.641 130.729,120.086 130.750,122.244 131.391 M286.246 131.565 C 289.915 133.231,291.770 138.105,290.181 141.907 C 288.270 146.481,282.828 148.240,278.697 145.621 C 270.466 140.401,277.375 127.537,286.246 131.565 M135.870 202.900 C 137.879 207.355,139.395 211.136,139.240 211.301 C 139.084 211.467,114.397 211.557,84.379 211.501 L 29.800 211.400 29.692 203.100 L 29.584 194.800 80.900 194.800 L 132.217 194.800 135.870 202.900 M372.708 203.100 L 372.600 211.400 318.100 211.501 C 269.346 211.592,263.600 211.538,263.600 210.989 C 263.600 210.227,264.949 206.957,268.092 200.100 L 270.521 194.800 321.669 194.800 L 372.816 194.800 372.708 203.100 M155.778 238.000 C 157.820 242.730,161.156 250.380,163.192 255.000 C 165.228 259.620,168.739 267.630,170.994 272.800 C 173.249 277.970,176.657 285.691,178.568 289.958 C 180.478 294.225,181.956 297.938,181.852 298.209 C 181.526 299.059,171.968 313.173,171.539 313.438 C 170.888 313.840,170.551 313.286,167.855 307.382 C 163.405 297.635,159.893 290.212,159.552 289.830 C 159.361 289.618,157.831 290.946,155.949 292.958 C 154.149 294.881,150.731 298.467,148.353 300.927 L 144.029 305.400 144.061 311.000 C 144.148 326.084,135.627 336.057,121.813 337.037 C 101.043 338.509,88.491 314.117,101.580 297.716 C 108.224 289.390,121.080 286.576,130.250 291.441 L 132.833 292.811 138.509 286.906 C 141.631 283.658,145.944 279.190,148.093 276.977 C 150.242 274.765,152.000 272.812,152.000 272.637 C 152.000 272.044,140.633 246.900,140.143 246.410 C 140.028 246.294,115.153 246.110,84.867 246.000 L 29.800 245.800 29.691 238.012 C 29.631 233.728,29.671 229.993,29.779 229.711 C 29.938 229.296,41.652 229.217,91.021 229.299 L 152.066 229.400 155.778 238.000 M372.600 237.600 L 372.600 245.800 317.633 246.000 L 262.665 246.200 260.233 251.445 C 258.895 254.330,256.194 260.319,254.231 264.754 L 250.661 272.819 252.031 274.287 C 257.555 280.208,269.835 292.400,270.275 292.400 C 270.573 292.400,271.532 291.948,272.408 291.395 C 277.200 288.370,286.752 288.378,293.155 291.412 C 312.023 300.354,310.216 329.117,290.367 335.780 C 272.770 341.687,255.330 326.383,258.720 308.009 C 259.202 305.397,259.814 306.236,250.171 296.300 C 244.198 290.146,242.800 288.946,242.800 289.973 C 242.800 291.167,232.186 313.600,231.621 313.600 C 231.061 313.600,220.827 298.661,220.809 297.816 C 220.800 297.452,222.952 292.487,228.613 279.800 C 229.988 276.720,232.742 270.510,234.733 266.000 C 236.725 261.490,240.553 252.850,243.241 246.800 C 245.930 240.750,248.689 234.540,249.373 233.000 C 250.056 231.460,250.758 229.974,250.932 229.699 C 251.184 229.300,263.648 229.218,311.924 229.299 L 372.600 229.400 372.600 237.600 M124.114 261.837 C 129.971 265.896,128.252 275.080,121.396 276.361 C 113.473 277.841,108.605 268.899,114.094 262.945 C 116.755 260.058,120.888 259.601,124.114 261.837 M285.803 261.146 C 290.394 263.231,292.208 269.148,289.468 273.101 C 284.529 280.229,273.282 275.415,275.170 266.980 C 276.296 261.945,281.399 259.145,285.803 261.146 M116.800 306.684 C 109.707 310.407,112.208 320.616,120.208 320.593 C 127.546 320.572,130.441 310.636,124.177 306.965 C 121.439 305.361,119.465 305.286,116.800 306.684 M280.200 306.130 C 274.888 308.209,273.286 315.037,277.262 318.653 C 282.385 323.313,290.000 319.786,290.000 312.754 C 290.000 307.733,284.905 304.289,280.200 306.130 M198.067 345.258 C 192.681 347.925,192.742 355.977,198.169 358.441 C 204.059 361.117,210.435 356.072,208.806 350.024 C 207.580 345.468,202.341 343.143,198.067 345.258 " stroke="none" fill="#fbfbfb" fill-rule="evenodd"></path></g></svg>